<?xml version="1.0" encoding="utf-8"?>
<!-- Generator: Adobe Illustrator 19.2.1, SVG Export Plug-In . SVG Version: 6.00 Build 0)  -->
<svg version="1.1" id="Layer_1" xmlns="http://www.w3.org/2000/svg" xmlns:xlink="http://www.w3.org/1999/xlink" x="0px" y="0px"
	width="235px" height="45px" viewBox="0 0 179.2 34.8" style="enable-background:new 0 0 179.2 34.8;" xml:space="preserve">
<style type="text/css">
	.st0{clip-path:url(#SVGID_2_);fill:#4BD9FF;}
	.st1{clip-path:url(#SVGID_4_);fill:#4BD9FF;}
	.st2{clip-path:url(#SVGID_6_);fill:#4BD9FF;}
	.st3{clip-path:url(#SVGID_8_);enable-background:new    ;}
	.st4{clip-path:url(#SVGID_10_);}
	.st5{clip-path:url(#SVGID_12_);}
	.st6{clip-path:url(#SVGID_14_);fill:#4BD9FF;}
	.st7{clip-path:url(#SVGID_16_);fill:#4BD9FF;}
	.st8{clip-path:url(#SVGID_18_);enable-background:new    ;}
	.st9{clip-path:url(#SVGID_20_);}
	.st10{clip-path:url(#SVGID_22_);}
	.st11{clip-path:url(#SVGID_24_);fill:#4BD9FF;}
	.st12{clip-path:url(#SVGID_26_);fill:#4BD9FF;}
	.st13{clip-path:url(#SVGID_28_);fill:#150F31;}
	.st14{clip-path:url(#SVGID_30_);fill:#150F31;}
	.st15{fill:#161032;}
</style>
<g>
	<defs>
		<path id="SVGID_1_" d="M2.5,34c-1.1,0-2.1-0.9-2.1-2.1V2.6c0-1.1,0.9-2.1,2.1-2.1s2.1,0.9,2.1,2.1v29.3C4.6,33,3.7,34,2.5,34"/>
	</defs>
	<use xlink:href="#SVGID_1_"  style="overflow:visible;fill-rule:evenodd;clip-rule:evenodd;fill:#4BD9FF;"/>
	<clipPath id="SVGID_2_">
		<use xlink:href="#SVGID_1_"  style="overflow:visible;"/>
	</clipPath>
	<rect x="-4.6" y="-4.6" class="st0" width="14.3" height="43.6"/>
</g>
<g>
	<defs>
		<path id="SVGID_3_" d="M31.2,20.7L31.2,20.7c0-6.2-5-11.2-11.2-11.2c-2.7,0-5.1,0.9-7,2.4v-0.4c0-1.1-0.9-2.1-2.1-2.1
			s-2.1,0.9-2.1,2.1v9.1v0.1v0.1v11.1c0,1.1,0.9,2.1,2.1,2.1s2.1-0.9,2.1-2.1V20.7c0.1-3.8,3.2-6.9,7-6.9c3.9,0,7,3.1,7,7v0.1v11
			c0,1.1,0.9,2.1,2.1,2.1s2.1-0.9,2.1-2.1L31.2,20.7C31.2,20.8,31.2,20.7,31.2,20.7"/>
	</defs>
	<use xlink:href="#SVGID_3_"  style="overflow:visible;fill-rule:evenodd;clip-rule:evenodd;fill:#4BD9FF;"/>
	<clipPath id="SVGID_4_">
		<use xlink:href="#SVGID_3_"  style="overflow:visible;"/>
	</clipPath>
	<rect x="3.7" y="4.5" class="st1" width="32.5" height="34.6"/>
</g>
<g>
	<defs>
		<path id="SVGID_5_" d="M58.1,9.5c-1.1,0-2.1,0.9-2.1,2.1v20.2c0,1.1,0.9,2.1,2.1,2.1c1.1,0,2.1-0.9,2.1-2.1V11.6
			C60.1,10.5,59.2,9.5,58.1,9.5"/>
	</defs>
	<use xlink:href="#SVGID_5_"  style="overflow:visible;fill-rule:evenodd;clip-rule:evenodd;fill:#4BD9FF;"/>
	<clipPath id="SVGID_6_">
		<use xlink:href="#SVGID_5_"  style="overflow:visible;"/>
	</clipPath>
	<rect x="51" y="4.5" class="st2" width="14.3" height="34.5"/>
</g>
<g>
	<defs>
		<rect id="SVGID_7_" x="55.8" y="0.3" width="4.6" height="4.6"/>
	</defs>
	<clipPath id="SVGID_8_">
		<use xlink:href="#SVGID_7_"  style="overflow:visible;"/>
	</clipPath>
	<g class="st3">
		<g>
			<defs>
				<rect id="SVGID_9_" x="55.4" y="-0.4" width="5" height="6"/>
			</defs>
			<clipPath id="SVGID_10_">
				<use xlink:href="#SVGID_9_"  style="overflow:visible;"/>
			</clipPath>
			<g class="st4">
				<defs>
					<path id="SVGID_11_" d="M58.1,0.3c1.3,0,2.3,1,2.3,2.3c0,1.3-1,2.3-2.3,2.3c-1.3,0-2.3-1-2.3-2.3C55.8,1.4,56.8,0.3,58.1,0.3"
						/>
				</defs>
				<use xlink:href="#SVGID_11_"  style="overflow:visible;fill-rule:evenodd;clip-rule:evenodd;fill:#4BD9FF;"/>
				<clipPath id="SVGID_12_">
					<use xlink:href="#SVGID_11_"  style="overflow:visible;"/>
				</clipPath>
				<g class="st5">
					<defs>
						<rect id="SVGID_13_" x="55.4" y="-0.4" width="5" height="6"/>
					</defs>
					<use xlink:href="#SVGID_13_"  style="overflow:visible;fill:#4BD9FF;"/>
					<clipPath id="SVGID_14_">
						<use xlink:href="#SVGID_13_"  style="overflow:visible;"/>
					</clipPath>
					<rect x="50.8" y="-4.7" class="st6" width="14.6" height="14.6"/>
				</g>
			</g>
		</g>
	</g>
</g>
<g>
	<defs>
		<path id="SVGID_15_" d="M43.6,19.8c-0.2-0.1-0.3-0.1-0.5-0.1c-3.7,0-5.2-1.5-5.2-3c0-1.5,1.8-3.1,5.2-3.1h0.1c2.5,0,4.7,1.2,5.3,3
			c0.4,1.1,1.6,1.7,2.7,1.4c1.1-0.4,1.7-1.6,1.3-2.7c-1.1-3.5-4.9-5.9-9.3-5.9H43c-6.2,0-9.4,3.7-9.4,7.4c0,3.4,2.8,7,9.1,7.2
			c0.2,0.1,0.3,0.1,0.5,0.1c3.7,0,5.2,1.5,5.2,3c0,1.5-1.8,3.1-5.2,3.1h-0.1c-2.5,0-4.7-1.2-5.3-3c-0.4-1.1-1.6-1.8-2.7-1.4
			c-1.1,0.4-1.7,1.6-1.3,2.7c1.1,3.5,4.9,5.9,9.3,5.9h0.1c6.2,0,9.4-3.7,9.4-7.4C52.7,23.6,49.9,20,43.6,19.8"/>
	</defs>
	<use xlink:href="#SVGID_15_"  style="overflow:visible;fill-rule:evenodd;clip-rule:evenodd;fill:#4BD9FF;"/>
	<clipPath id="SVGID_16_">
		<use xlink:href="#SVGID_15_"  style="overflow:visible;"/>
	</clipPath>
	<rect x="28.7" y="4.4" class="st7" width="29" height="35"/>
</g>
<g>
	<defs>
		<rect id="SVGID_17_" x="63.1" y="0.3" width="24.7" height="33.7"/>
	</defs>
	<clipPath id="SVGID_18_">
		<use xlink:href="#SVGID_17_"  style="overflow:visible;"/>
	</clipPath>
	<g class="st8">
		<g>
			<defs>
				<rect id="SVGID_19_" x="62.4" y="-0.4" width="26" height="35"/>
			</defs>
			<clipPath id="SVGID_20_">
				<use xlink:href="#SVGID_19_"  style="overflow:visible;"/>
			</clipPath>
			<g class="st9">
				<defs>
					<path id="SVGID_21_" d="M85.7,0.3c-1.1,0-2.1,0.9-2.1,2.1v10c-2.2-2-5-3.1-8.1-3.1c-6.8,0-12.3,5.5-12.3,12.3
						c0,6.8,5.6,12.3,12.3,12.3c3.1,0,6-1.2,8.1-3.1v1c0,1.1,0.9,2.1,2.1,2.1s2.1-0.9,2.1-2.1V2.5C87.8,1.3,86.9,0.3,85.7,0.3
						 M75.4,29.8c-4.5,0-8.1-3.7-8.1-8.1c0-4.5,3.7-8.1,8.1-8.1c4.4,0,8.1,3.7,8.1,8.1C83.5,26.1,79.9,29.8,75.4,29.8"/>
				</defs>
				<use xlink:href="#SVGID_21_"  style="overflow:visible;fill-rule:evenodd;clip-rule:evenodd;fill:#4BD9FF;"/>
				<clipPath id="SVGID_22_">
					<use xlink:href="#SVGID_21_"  style="overflow:visible;"/>
				</clipPath>
				<g class="st10">
					<defs>
						<rect id="SVGID_23_" x="62.4" y="-0.4" width="26" height="35"/>
					</defs>
					<use xlink:href="#SVGID_23_"  style="overflow:visible;fill:#4BD9FF;"/>
					<clipPath id="SVGID_24_">
						<use xlink:href="#SVGID_23_"  style="overflow:visible;"/>
					</clipPath>
					<rect x="58.1" y="-4.7" class="st11" width="34.7" height="43.7"/>
				</g>
			</g>
		</g>
	</g>
</g>
<g>
	<defs>
		<path id="SVGID_25_" d="M113.3,23.5c1-0.2,1.7-1.1,1.7-2.1c0-6.6-5.4-12-12.1-12c-6.6,0-12.1,5.4-12.1,12
			c0,6.9,5.6,12.6,12.6,12.6c3.5,0,6.7-1.4,9.1-3.9c0.8-0.8,0.8-2.2-0.1-3c-0.8-0.8-2.2-0.8-3,0.1c-1.6,1.7-3.7,2.6-6,2.6
			c-3.9,0-7.2-2.7-8.1-6.2h17.6C112.9,23.6,113.1,23.5,113.3,23.5 M102.8,13.6L102.8,13.6c3.6,0,6.6,2.4,7.6,5.7H95.3
			C96.2,16,99.3,13.6,102.8,13.6"/>
	</defs>
	<use xlink:href="#SVGID_25_"  style="overflow:visible;fill-rule:evenodd;clip-rule:evenodd;fill:#4BD9FF;"/>
	<clipPath id="SVGID_26_">
		<use xlink:href="#SVGID_25_"  style="overflow:visible;"/>
	</clipPath>
	<rect x="85.7" y="4.4" class="st12" width="34.2" height="34.6"/>
</g>
<g>
	<defs>
		<path id="SVGID_27_" d="M146.2,30.9L139,18.3c4.3-1.1,7.2-4.4,7.2-8.6c0-5.2-4.6-9.4-10.3-9.4h-0.3h-0.2h-9.6
			c-0.5,0-1.1,0.2-1.5,0.6c-0.5,0.4-0.6,0.9-0.6,1.5v29.4c0,1.1,0.9,2.1,2.1,2.1c1.2,0,2.1-0.9,2.1-2.1V18.6h6.5l8.1,14.3
			c0.4,0.7,1.1,1.1,1.8,1.1c0.4,0,0.7-0.1,1.1-0.3C146.4,33.1,146.7,31.8,146.2,30.9z M128,4.5h7.5h0.3h0.2c3.3,0,6.1,2.3,6.1,5.2
			c0,2.7-2.6,4.7-6.1,4.7h-0.2h-0.2h-7.8L128,4.5z"/>
	</defs>
	<clipPath id="SVGID_28_">
		<use xlink:href="#SVGID_27_"  style="overflow:visible;"/>
	</clipPath>
	<rect x="118.8" y="-4.7" class="st13" width="32.7" height="43.7"/>
</g>
<g>
	<defs>
		<path id="SVGID_29_" d="M161.6,22l6.8-8.4c0.8-0.9,0.6-2.4-0.3-3.1c-0.9-0.8-2.4-0.6-3.1,0.3l-6.2,7.7l-6.2-7.7
			c-0.8-0.9-2.1-1.1-3.1-0.3c-0.9,0.8-1.1,2.1-0.3,3.1l6.8,8.4l-6.8,8.4c-0.8,0.9-0.6,2.4,0.3,3.1c0.4,0.3,0.9,0.5,1.4,0.5
			c0.6,0,1.3-0.3,1.7-0.8l6.2-7.7l6.2,7.7c0.5,0.5,1.1,0.8,1.8,0.8c0.5,0,1-0.2,1.4-0.5c1.1-0.8,1.2-2.2,0.5-3.1L161.6,22z"/>
	</defs>
	<clipPath id="SVGID_30_">
		<use xlink:href="#SVGID_29_"  style="overflow:visible;"/>
	</clipPath>
	<rect x="143.5" y="5" class="st14" width="30.4" height="34"/>
</g>
<path class="st15" d="M171.6,32.5l0.8-0.1c0.1,0.3,0.2,0.4,0.3,0.5c0.2,0.1,0.3,0.2,0.5,0.2c0.3,0,0.4-0.1,0.5-0.2
	c0.1-0.1,0.2-0.3,0.2-0.3s0-0.2-0.1-0.3c-0.1-0.1-0.2-0.1-0.3-0.2c-0.1,0-0.3-0.1-0.6-0.2c-0.4-0.1-0.7-0.3-0.8-0.3
	c-0.3-0.2-0.3-0.4-0.3-0.8c0-0.2,0.1-0.3,0.2-0.5c0.1-0.2,0.3-0.3,0.4-0.3c0.2-0.1,0.4-0.2,0.8-0.2c0.4,0,0.8,0.1,1,0.3
	c0.3,0.2,0.3,0.5,0.3,0.8h-0.8c0-0.2-0.1-0.3-0.2-0.4c-0.1-0.1-0.3-0.1-0.5-0.1c-0.3,0-0.4,0.1-0.5,0.2c-0.1,0.1-0.1,0.2-0.1,0.3
	c0,0.1,0,0.2,0.1,0.3c0.1,0.1,0.3,0.2,0.7,0.3c0.3,0.1,0.6,0.2,0.8,0.3c0.2,0.1,0.3,0.3,0.4,0.3c0.1,0.2,0.2,0.3,0.2,0.6
	s-0.1,0.4-0.2,0.6c-0.1,0.2-0.3,0.3-0.5,0.4c-0.3,0.1-0.5,0.2-0.8,0.2c-0.5,0-0.8-0.1-1.1-0.3C171.8,33.3,171.6,32.9,171.6,32.5
	L171.6,32.5z"/>
<polygon class="st15" points="175.2,33.8 175.2,30 176.4,30 177.1,32.6 177.7,30 178.8,30 178.8,33.8 178.1,33.8 178.1,30.8
	177.4,33.8 176.6,33.8 175.9,30.8 175.9,33.8 "/>
</svg>
